<svg xmlns="http://www.w3.org/2000/svg" width="83.521" height="82.277" viewBox="0 0 83.521 82.277">
  <g id="brand" transform="translate(0 0)">
    <path id="Path_140" data-name="Path 140" d="M17.477,82.277a1.631,1.631,0,0,1-1.626-1.493l-1-11.816a37.426,37.426,0,0,1-2.576-57.561A42.981,42.981,0,0,1,41.761,0,42.979,42.979,0,0,1,71.249,11.407a37.341,37.341,0,0,1,0,55.348A42.981,42.981,0,0,1,41.761,78.164,44.558,44.558,0,0,1,30.022,76.6L18.166,82.124a1.632,1.632,0,0,1-.689.152ZM41.761,3.262c-21.228,0-38.5,16.069-38.5,35.819A34.8,34.8,0,0,0,17.4,66.819a1.631,1.631,0,0,1,.637,1.16l.866,10.2,10.287-4.793a1.63,1.63,0,0,1,1.141-.089,41.252,41.252,0,0,0,11.428,1.6c21.227,0,38.5-16.069,38.5-35.819s-17.27-35.82-38.5-35.82Zm0,0" fill="#fff"/>
    <g id="Group_118" data-name="Group 118">
      <path id="Path_138" data-name="Path 138" d="M114.906,173.251a3.023,3.023,0,0,1-2-.754l-9.762-8.544-17.365,7.4a3.065,3.065,0,0,1-3.587-.914,3.03,3.03,0,0,1,.073-3.829l4.745-6.212a1.631,1.631,0,0,1,2.593,1.98l-4.3,5.633,17.507-7.465a1.631,1.631,0,0,1,1.714.273l10.358,9.066,19.744-22.677-18.85,7.487a1.631,1.631,0,0,1-1.676-.289l-10.376-9.082L89.606,162.382c-.594.677-2.954,2.165-3.631,1.571s.445-2.874,1.038-3.552L101.429,143a3.042,3.042,0,0,1,4.27-.276l9.8,8.577,18.786-7.461a3.032,3.032,0,0,1,3.373,4.861l-20.5,23.549c-.014.017-.029.033-.044.049a3.022,3.022,0,0,1-2.2.954Zm-30.412-4.892-.006,0Zm0,0" transform="translate(-68.246 -118.816)" fill="#fff"/>
    </g>
  </g>
</svg>
