<svg xmlns="http://www.w3.org/2000/svg" width="93.998" height="102" viewBox="0 0 93.998 102">
  <g id="Group_114" data-name="Group 114" transform="translate(-392.738 -3391.719)">
    <g id="Group_113" data-name="Group 113" transform="translate(392.479 3392)">
      <g id="Rectangle_128" data-name="Rectangle 128" transform="translate(0.26 -0.281)" fill="none" stroke="#fff" stroke-width="2">
        <rect width="82" height="102" stroke="none"/>
        <rect x="1" y="1" width="80" height="100" fill="none"/>
      </g>
      <g id="Ellipse_24" data-name="Ellipse 24" transform="translate(20.26 15.719)" fill="#fff1eb" stroke="#fff1eb" stroke-width="2">
        <ellipse cx="5.5" cy="6" rx="5.5" ry="6" stroke="none"/>
        <ellipse cx="5.5" cy="6" rx="4.5" ry="5" fill="none"/>
      </g>
      <g id="Rectangle_129" data-name="Rectangle 129" transform="translate(14.26 27.719)" fill="#fff1eb" stroke="#f4681f" stroke-width="1">
        <rect width="22" height="10" rx="3" stroke="none"/>
        <rect x="0.5" y="0.5" width="21" height="9" rx="2.5" fill="none"/>
      </g>
      <g id="Rectangle_130" data-name="Rectangle 130" transform="translate(45.26 19.719)" fill="#fff" stroke="#fff1eb" stroke-width="1">
        <rect width="22" height="2" rx="1" stroke="none"/>
        <rect x="0.5" y="0.5" width="21" height="1" rx="0.5" fill="none"/>
      </g>
      <g id="Rectangle_131" data-name="Rectangle 131" transform="translate(45.26 24.719)" fill="#fff" stroke="#fff1eb" stroke-width="1">
        <rect width="22" height="2" rx="1" stroke="none"/>
        <rect x="0.5" y="0.5" width="21" height="1" rx="0.5" fill="none"/>
      </g>
      <g id="Rectangle_132" data-name="Rectangle 132" transform="translate(45.26 29.719)" fill="#fff" stroke="#fff1eb" stroke-width="1">
        <rect width="22" height="2" rx="1" stroke="none"/>
        <rect x="0.5" y="0.5" width="21" height="1" rx="0.5" fill="none"/>
      </g>
      <rect id="Rectangle_133" data-name="Rectangle 133" width="53" height="4" transform="translate(14.26 46.719)" fill="#fff1eb"/>
      <rect id="Rectangle_134" data-name="Rectangle 134" width="53" height="4" transform="translate(14.26 56.719)" fill="#fff1eb"/>
      <rect id="Rectangle_135" data-name="Rectangle 135" width="53" height="3" transform="translate(14.26 66.719)" fill="#fff1eb"/>
      <rect id="Rectangle_136" data-name="Rectangle 136" width="53" height="3" transform="translate(14.26 76.719)" fill="#fff1eb"/>
    </g>
    <g id="Group_115" data-name="Group 115" transform="translate(451.934 3449.044) rotate(-45)">
      <g id="Path_131" data-name="Path 131" transform="matrix(0.719, -0.695, 0.695, 0.719, 2.35, 36.082)" fill="#f4681f">
        <path d="M 49.52639770507813 6.221856594085693 L 2.415206670761108 6.221856594085693 C 1.359156608581543 6.221856594085693 0.4999965727329254 5.362696647644043 0.4999965727329254 4.306646823883057 L 0.4999965727329254 2.415206670761108 C 0.4999965727329254 1.359156608581543 1.359156608581543 0.4999966323375702 2.415206670761108 0.4999966323375702 L 49.52639770507813 0.4999966323375702 C 50.58243560791016 0.4999966323375702 51.44159698486328 1.359156608581543 51.44159698486328 2.415206670761108 L 51.44159698486328 4.306646823883057 C 51.44159698486328 5.362696647644043 50.58243560791016 6.221856594085693 49.52639770507813 6.221856594085693 Z" stroke="none"/>
        <path d="M 2.415206909179688 0.9999966621398926 C 1.634857177734375 0.9999966621398926 0.9999961853027344 1.634856700897217 0.9999961853027344 2.415206432342529 L 0.9999961853027344 4.306646347045898 C 0.9999961853027344 5.086996555328369 1.634857177734375 5.721856594085693 2.415206909179688 5.721856594085693 L 49.52639770507813 5.721856594085693 C 50.30673599243164 5.721856594085693 50.94159698486328 5.086996555328369 50.94159698486328 4.306646347045898 L 50.94159698486328 2.415206432342529 C 50.94159698486328 1.634856700897217 50.30673599243164 0.9999966621398926 49.52639770507813 0.9999966621398926 L 2.415206909179688 0.9999966621398926 M 2.415206909179688 -3.337860107421875e-06 L 49.52639770507813 -3.337860107421875e-06 C 50.86026763916016 -3.337860107421875e-06 51.94159698486328 1.081326484680176 51.94159698486328 2.415206432342529 L 51.94159698486328 4.306646347045898 C 51.94159698486328 5.64052677154541 50.86026763916016 6.721856594085693 49.52639770507813 6.721856594085693 L 2.415206909179688 6.721856594085693 C 1.081317901611328 6.721856594085693 -3.814697265625e-06 5.64052677154541 -3.814697265625e-06 4.306646347045898 L -3.814697265625e-06 2.415206432342529 C -3.814697265625e-06 1.081326484680176 1.081317901611328 -3.337860107421875e-06 2.415206909179688 -3.337860107421875e-06 Z" stroke="none" fill="#fff"/>
      </g>
      <g id="Path_130" data-name="Path 130" transform="matrix(-0.777, -0.629, 0.629, -0.777, 5.067, 43.721)" fill="#fff">
        <path d="M 6.020899295806885 5.678262710571289 L 0.9867678284645081 5.678262710571289 C 0.7664778232574463 5.678262710571289 0.5681678652763367 5.56259298324585 0.5107778310775757 5.455422878265381 C 0.4978978335857391 5.431373119354248 0.490807831287384 5.4181227684021 0.5233778357505798 5.369203090667725 L 3.734766483306885 0.5958265066146851 C 3.752152442932129 0.6185910105705261 3.771735668182373 0.6455488204956055 3.793618202209473 0.6774447560310364 L 5.711057662963867 4.825422763824463 L 5.727297782897949 4.860542774200439 L 5.748737812042236 4.892743110656738 C 5.929610729217529 5.164381504058838 6.017245292663574 5.505261421203613 6.020899295806885 5.678262710571289 Z" stroke="none"/>
        <path d="M 3.666219234466553 1.593453407287598 L 1.254446983337402 5.178262710571289 L 5.33808422088623 5.178262710571289 C 5.336256980895996 5.175442695617676 5.334414005279541 5.172635555267334 5.332567691802979 5.169862747192383 L 5.289677619934082 5.105463027954102 L 5.257207870483398 5.035223007202148 L 3.666219234466553 1.593453407287598 M 3.722256183624268 -1.430511474609375e-06 C 3.887269973754883 -1.430511474609375e-06 4.049832820892334 0.1596341133117676 4.230567932128906 0.4310626983642578 L 6.164917945861816 4.615622997283936 C 6.521187782287598 5.150662899017334 6.760987758636475 6.178262710571289 6.11818790435791 6.178262710571289 L 0.9867677688598633 6.178262710571289 C 0.3439679145812988 6.178262710571289 -0.2490720748901367 5.62712287902832 0.1071977615356445 5.092082977294922 L 3.331187725067139 0.2999730110168457 C 3.469062805175781 0.09291172027587891 3.596374273300171 -1.430511474609375e-06 3.722256183624268 -1.430511474609375e-06 Z" stroke="none" fill="#fff"/>
      </g>
    </g>
  </g>
</svg>
