<svg xmlns="http://www.w3.org/2000/svg" width="94.159" height="94.159" viewBox="0 0 94.159 94.159">
  <g id="high-five" transform="translate(0)">
    <path id="Path_273" data-name="Path 273" d="M90.56,39.475a8.288,8.288,0,0,0-10.909,1.36V13.793A8.281,8.281,0,0,0,68.325,6.1,8.272,8.272,0,0,0,53.366,3.828a8.283,8.283,0,0,0-12.338,7.207v.474a8.283,8.283,0,0,0-11.035,7.8v6.826A8.31,8.31,0,0,0,25.835,31.3a8.282,8.282,0,0,0-11.327,7.691V60.513A8.288,8.288,0,0,0,1.443,70.666c8.408,12.3,7.8,11.479,8.219,11.828l10.363,8.552V91.4a2.759,2.759,0,0,0,5.517,0V89.745a2.758,2.758,0,0,0-1-2.128L13.475,78.487,6,67.552a2.77,2.77,0,1,1,4.574-3.126l4.417,6.463a2.759,2.759,0,0,0,5.037-1.556V38.988a2.759,2.759,0,1,1,5.517.092V55.539a2.759,2.759,0,0,0,5.517,0V33.471a2.759,2.759,0,0,1,5.517,0V55.539a2.759,2.759,0,0,0,5.517,0V36.229a2.759,2.759,0,0,1,5.517,0v19.31a2.759,2.759,0,0,0,5.517,0v-9.2a2.759,2.759,0,0,1,5.517,0v26.22a15.972,15.972,0,0,1-4.71,11.369,2.758,2.758,0,0,0-.808,1.951V91.4a2.759,2.759,0,0,0,5.517,0V86.982a21.436,21.436,0,0,0,5.517-14.418V46.344a8.29,8.29,0,0,0-6.585-8.1V8.276a2.759,2.759,0,0,1,5.517,0V33.471a2.759,2.759,0,0,0,5.517,0V13.885a2.759,2.759,0,1,1,5.517-.092V49.654a2.759,2.759,0,0,0,5.037,1.556l4.417-6.463a2.77,2.77,0,1,1,4.574,3.126l-7.5,10.971-10,8.782a2.759,2.759,0,0,0-.938,2.073V91.4a2.759,2.759,0,0,0,5.517,0V70.949c10.158-8.919,9.5-8.3,9.781-8.7l7.7-11.257a8.3,8.3,0,0,0-2.154-11.513ZM35.511,25.369V19.31a2.759,2.759,0,0,1,5.517,0v9.584q-.119.062-.235.128A8.3,8.3,0,0,0,35.511,25.369Zm11.035,2.759V11.034a2.759,2.759,0,0,1,5.517,0V32.172A8.3,8.3,0,0,0,46.546,28.128Z" transform="translate(0)" fill="#fff"/>
    <path id="Path_274" data-name="Path 274" d="M50.652,54.571a2.759,2.759,0,1,0,3.9-3.9l-3.862-3.862a2.759,2.759,0,0,0-3.9,3.9Z" transform="translate(-37.525 -37.54)" fill="#fff"/>
    <path id="Path_275" data-name="Path 275" d="M123.572,10.821a2.759,2.759,0,0,0,5.33-1.428L127.49,4.122a2.759,2.759,0,0,0-5.33,1.428Z" transform="translate(-99.617 -1.695)" fill="#fff"/>
    <path id="Path_276" data-name="Path 276" d="M4.1,127.5l5.271,1.412a2.759,2.759,0,1,0,1.428-5.329l-5.271-1.412A2.759,2.759,0,1,0,4.1,127.5Z" transform="translate(-1.677 -99.626)" fill="#fff"/>
  </g>
</svg>
