<svg width="344" height="173" viewBox="0 0 344 173" fill="none" xmlns="http://www.w3.org/2000/svg">
<rect x="342.919" y="103.403" width="66.6873" height="66.7021" rx="5" transform="rotate(-179.662 342.919 103.403)" fill="#FFC735"/>
<ellipse cx="309.825" cy="103.49" rx="11.7542" ry="11.8209" transform="rotate(-179.662 309.825 103.49)" fill="white"/>
<ellipse cx="310.221" cy="36.4258" rx="11.7542" ry="11.8209" transform="rotate(-179.662 310.221 36.4258)" fill="white"/>
<ellipse cx="275.383" cy="69.8904" rx="10.4226" ry="10.6156" transform="rotate(-179.662 275.383 69.8904)" fill="#FFC735"/>
<rect x="342.981" y="172.042" width="66.6873" height="66.7021" rx="5" transform="rotate(-179.662 342.981 172.042)" fill="#FFC735"/>
<ellipse cx="309.555" cy="102.807" rx="11.7542" ry="11.8209" transform="rotate(-179.662 309.555 102.807)" fill="white"/>
<ellipse cx="275.445" cy="138.53" rx="10.4226" ry="10.6156" transform="rotate(-179.662 275.445 138.53)" fill="#FFC735"/>
<rect x="274.853" y="102.982" width="66.6873" height="66.7021" rx="5" transform="rotate(-179.662 274.853 102.982)" fill="#FFC93D"/>
<ellipse cx="242.484" cy="104.715" rx="11.7542" ry="11.8209" transform="rotate(-179.662 242.484 104.715)" fill="white"/>
<ellipse cx="242.154" cy="36.0054" rx="11.7542" ry="11.8209" transform="rotate(-179.662 242.154 36.0054)" fill="white"/>
<ellipse cx="276.311" cy="69.5516" rx="10.4226" ry="10.6156" transform="rotate(-179.662 276.311 69.5516)" fill="white"/>
<ellipse cx="207.316" cy="69.47" rx="10.4226" ry="10.6156" transform="rotate(-179.662 207.316 69.47)" fill="#F26522"/>
<rect x="274.915" y="171.623" width="66.6873" height="66.7021" rx="5" transform="rotate(-179.662 274.915 171.623)" fill="#FFC735"/>
<ellipse cx="242.217" cy="104.646" rx="11.7542" ry="11.8209" transform="rotate(-179.662 242.217 104.646)" fill="white"/>
<ellipse cx="276.373" cy="138.192" rx="10.4226" ry="10.6156" transform="rotate(-179.662 276.373 138.192)" fill="white"/>
<ellipse cx="207.379" cy="138.11" rx="10.4226" ry="10.6156" transform="rotate(-179.662 207.379 138.11)" fill="#FFC735"/>
<rect x="206.366" y="102.142" width="66.6873" height="66.7021" rx="5" transform="rotate(-179.662 206.366 102.142)" fill="#F26522"/>
<ellipse cx="173.272" cy="102.229" rx="11.7542" ry="11.8209" transform="rotate(-179.662 173.272 102.229)" fill="white"/>
<ellipse cx="173.668" cy="35.1646" rx="11.7542" ry="11.8209" transform="rotate(-179.662 173.668 35.1646)" fill="white"/>
<ellipse cx="138.83" cy="68.6297" rx="10.4226" ry="10.6156" transform="rotate(-179.662 138.83 68.6297)" fill="#F26522"/>
<rect x="206.428" y="170.782" width="66.6873" height="66.7021" rx="5" transform="rotate(-179.662 206.428 170.782)" fill="#FFC735"/>
<ellipse cx="173.41" cy="102.33" rx="11.7542" ry="11.8209" transform="rotate(-179.662 173.41 102.33)" fill="white"/>
<ellipse cx="207.886" cy="137.351" rx="10.4226" ry="10.6156" transform="rotate(-179.662 207.886 137.351)" fill="white"/>
<ellipse cx="138.892" cy="137.27" rx="10.4226" ry="10.6156" transform="rotate(-179.662 138.892 137.27)" fill="#FFC735"/>
<rect x="137.459" y="101.723" width="66.6873" height="66.7021" rx="5" transform="rotate(-179.662 137.459 101.723)" fill="#FFC735"/>
<ellipse cx="104.365" cy="101.81" rx="11.7542" ry="11.8209" transform="rotate(-179.662 104.365 101.81)" fill="white"/>
<ellipse cx="104.761" cy="34.7451" rx="11.7542" ry="11.8209" transform="rotate(-179.662 104.761 34.7451)" fill="white"/>
<ellipse cx="69.9229" cy="68.2103" rx="10.4226" ry="10.6156" transform="rotate(-179.662 69.9229 68.2103)" fill="#FFC735"/>
<rect x="52.3669" y="64.6479" width="53.7851" height="53.797" rx="5" transform="rotate(-166.814 52.3669 64.6479)" fill="#FFC735"/>
<ellipse cx="35.6631" cy="101.032" rx="11.7542" ry="11.8209" transform="rotate(-179.662 35.6631 101.032)" fill="white"/>
<ellipse cx="59.509" cy="38.6219" rx="8.40608" ry="8.56174" transform="rotate(-166.814 59.509 38.6219)" fill="white"/>
<ellipse cx="26.1375" cy="57.9251" rx="8.40608" ry="8.56174" transform="rotate(-166.814 26.1375 57.9251)" fill="#FFC735"/>
<ellipse cx="138.017" cy="68.5584" rx="10.4226" ry="10.6156" transform="rotate(-179.662 138.017 68.5584)" fill="#F26522"/>
<rect x="137.522" y="170.362" width="66.6873" height="66.7021" rx="5" transform="rotate(-179.662 137.522 170.362)" fill="#FFC735"/>
<ellipse cx="104.621" cy="101.852" rx="11.7542" ry="11.8209" transform="rotate(-179.662 104.621 101.852)" fill="white"/>
<ellipse cx="138.98" cy="136.931" rx="10.4226" ry="10.6156" transform="rotate(-179.662 138.98 136.931)" fill="white"/>
<ellipse cx="69.9851" cy="136.85" rx="10.4226" ry="10.6156" transform="rotate(-179.662 69.9851 136.85)" fill="#FFC735"/>
<rect x="68.8198" y="169.584" width="66.6873" height="66.7021" rx="5" transform="rotate(-179.662 68.8198 169.584)" fill="#FFC735"/>
<ellipse cx="35.9188" cy="101.075" rx="11.7542" ry="11.8209" transform="rotate(-179.662 35.9188 101.075)" fill="white"/>
<ellipse cx="70.2777" cy="136.154" rx="10.4226" ry="10.6156" transform="rotate(-179.662 70.2777 136.154)" fill="white"/>
<path d="M158.532 57.8818C160.531 59.2145 164.262 61.9687 163.196 62.3241C162.13 62.6795 159.642 63.8048 158.532 64.3231" stroke="#232020"/>
<path d="M185.043 57.8813C183.044 59.214 179.312 61.9682 180.378 62.3236C181.444 62.679 183.932 63.8044 185.043 64.3226" stroke="#232020"/>
<path d="M180.015 73.5158C178.948 70.6727 169.575 71.5168 165.355 73.96C164.615 74.4783 162.556 75.5148 162.023 77.2917C161.357 79.5128 172.463 85.732 174.24 85.732C176.017 85.732 181.347 77.0696 180.015 73.5158Z" fill="#232020" stroke="#232020"/>
<mask id="mask0" mask-type="alpha" maskUnits="userSpaceOnUse" x="161" y="71" width="20" height="16">
<path d="M179.985 73.5163C178.919 70.6732 169.546 71.5172 165.326 73.9605C164.585 74.4788 162.527 75.5153 161.994 77.2922C161.328 79.5133 172.433 85.7325 174.21 85.7325C175.987 85.7325 181.318 77.0701 179.985 73.5163Z" fill="#232020" stroke="white"/>
</mask>
<g mask="url(#mask0)">
<path d="M171.632 79.9398C173.563 78.5617 177.265 79.6527 178.875 80.3704L176.702 86.8302H169.7L167.769 82.9543C168.252 82.5237 169.7 81.3179 171.632 79.9398Z" fill="white"/>
</g>
</svg>
