<svg width="3980" height="3729" viewBox="0 0 3980 3729" fill="none" xmlns="http://www.w3.org/2000/svg">
<rect x="3969.54" y="2234.13" width="728.473" height="728.635" rx="5" transform="rotate(-179.662 3969.54 2234.13)" fill="#FFC735"/>
<ellipse cx="3608.03" cy="2235.09" rx="128.4" ry="129.128" transform="rotate(-179.662 3608.03 2235.09)" fill="white"/>
<ellipse cx="3612.35" cy="1502.49" rx="128.4" ry="129.128" transform="rotate(-179.662 3612.35 1502.49)" fill="white"/>
<ellipse cx="3231.79" cy="1868.05" rx="113.853" ry="115.962" transform="rotate(-179.662 3231.79 1868.05)" fill="#FFC735"/>
<rect x="3970.22" y="2983.93" width="728.473" height="728.635" rx="5" transform="rotate(-179.662 3970.22 2983.93)" fill="#FFC735"/>
<ellipse cx="3608.71" cy="2984.89" rx="128.4" ry="129.128" transform="rotate(-179.662 3608.71 2984.89)" fill="white"/>
<ellipse cx="3605.08" cy="2227.63" rx="128.4" ry="129.128" transform="rotate(-179.662 3605.08 2227.63)" fill="white"/>
<ellipse cx="3232.48" cy="2617.86" rx="113.853" ry="115.962" transform="rotate(-179.662 3232.48 2617.86)" fill="#FFC735"/>
<rect x="3973.21" y="1484.04" width="728.473" height="728.635" rx="5" transform="rotate(-179.662 3973.21 1484.04)" fill="#FFC735"/>
<ellipse cx="3611.7" cy="1484.99" rx="128.4" ry="129.128" transform="rotate(-179.662 3611.7 1484.99)" fill="white"/>
<ellipse cx="3616.02" cy="752.402" rx="128.4" ry="129.128" transform="rotate(-179.662 3616.02 752.402)" fill="white"/>
<ellipse cx="3235.46" cy="1117.96" rx="113.853" ry="115.962" transform="rotate(-179.662 3235.46 1117.96)" fill="#FFC735"/>
<rect x="3975.11" y="739.245" width="728.473" height="728.635" rx="5" transform="rotate(-179.662 3975.11 739.245)" fill="#FFC735"/>
<ellipse cx="3613.59" cy="740.197" rx="128.4" ry="129.128" transform="rotate(-179.662 3613.59 740.197)" fill="white"/>
<ellipse cx="3237.36" cy="373.165" rx="113.853" ry="115.962" transform="rotate(-179.662 3237.36 373.165)" fill="#FFC735"/>
<rect x="3229.04" y="3727.47" width="728.473" height="728.635" rx="5" transform="rotate(-179.662 3229.04 3727.47)" fill="#FFC735"/>
<ellipse cx="2871.85" cy="2995.83" rx="128.4" ry="129.128" transform="rotate(-179.662 2871.85 2995.83)" fill="white"/>
<ellipse cx="3244.97" cy="3362.29" rx="113.853" ry="115.962" transform="rotate(-179.662 3244.97 3362.29)" fill="#FFC735"/>
<ellipse cx="2491.29" cy="3361.4" rx="113.853" ry="115.962" transform="rotate(-179.662 2491.29 3361.4)" fill="#FFC735"/>
<rect x="3226" y="2229.54" width="728.473" height="728.635" rx="5" transform="rotate(-179.662 3226 2229.54)" fill="#F45B0F"/>
<ellipse cx="2872.42" cy="2248.48" rx="128.4" ry="129.128" transform="rotate(-179.662 2872.42 2248.48)" fill="white"/>
<ellipse cx="2868.82" cy="1497.9" rx="128.4" ry="129.128" transform="rotate(-179.662 2868.82 1497.9)" fill="white"/>
<ellipse cx="3241.93" cy="1864.36" rx="113.853" ry="115.962" transform="rotate(-179.662 3241.93 1864.36)" fill="#F45B0F"/>
<ellipse cx="2488.25" cy="1863.47" rx="113.853" ry="115.962" transform="rotate(-179.662 2488.25 1863.47)" fill="#FD6234"/>
<rect x="3226.68" y="2979.35" width="728.473" height="728.635" rx="5" transform="rotate(-179.662 3226.68 2979.35)" fill="#FFC735"/>
<ellipse cx="2873.1" cy="2998.28" rx="128.4" ry="129.128" transform="rotate(-179.662 2873.1 2998.28)" fill="white"/>
<ellipse cx="2869.49" cy="2247.71" rx="128.4" ry="129.128" transform="rotate(-179.662 2869.49 2247.71)" fill="white"/>
<ellipse cx="3242.61" cy="2614.16" rx="113.853" ry="115.962" transform="rotate(-179.662 3242.61 2614.16)" fill="white"/>
<ellipse cx="2488.94" cy="2613.27" rx="113.853" ry="115.962" transform="rotate(-179.662 2488.94 2613.27)" fill="#FFC735"/>
<rect x="3229" y="1481.8" width="728.473" height="728.635" rx="5" transform="rotate(-179.662 3229 1481.8)" fill="#FFC735"/>
<ellipse cx="2863.78" cy="1498.38" rx="128.4" ry="129.128" transform="rotate(-179.662 2863.78 1498.38)" fill="white"/>
<ellipse cx="2869.35" cy="752.401" rx="128.4" ry="129.128" transform="rotate(-179.662 2869.35 752.401)" fill="white"/>
<ellipse cx="3242.47" cy="1118.85" rx="113.853" ry="115.962" transform="rotate(-179.662 3242.47 1118.85)" fill="white"/>
<ellipse cx="2488.79" cy="1117.96" rx="113.853" ry="115.962" transform="rotate(-179.662 2488.79 1117.96)" fill="#FFC735"/>
<rect x="2477.88" y="2220.36" width="728.473" height="728.635" rx="5" transform="rotate(-179.662 2477.88 2220.36)" fill="#FFC735"/>
<ellipse cx="2116.36" cy="2221.32" rx="128.4" ry="129.128" transform="rotate(-179.662 2116.36 2221.32)" fill="white"/>
<ellipse cx="2120.69" cy="1488.72" rx="128.4" ry="129.128" transform="rotate(-179.662 2120.69 1488.72)" fill="white"/>
<ellipse cx="2489.4" cy="1864.75" rx="113.853" ry="115.962" transform="rotate(-179.662 2489.4 1864.75)" fill="#F45B0F"/>
<ellipse cx="1740.13" cy="1854.29" rx="113.853" ry="115.962" transform="rotate(-179.662 1740.13 1854.29)" fill="#FFC735"/>
<rect x="2478.56" y="2970.17" width="728.473" height="728.635" rx="5" transform="rotate(-179.662 2478.56 2970.17)" fill="#FFC735"/>
<ellipse cx="2117.04" cy="2971.12" rx="128.4" ry="129.128" transform="rotate(-179.662 2117.04 2971.12)" fill="white"/>
<ellipse cx="2117.87" cy="2222.41" rx="128.4" ry="129.128" transform="rotate(-179.662 2117.87 2222.41)" fill="white"/>
<ellipse cx="2494.48" cy="2604.98" rx="113.853" ry="115.962" transform="rotate(-179.662 2494.48 2604.98)" fill="white"/>
<ellipse cx="1740.81" cy="2604.09" rx="113.853" ry="115.962" transform="rotate(-179.662 1740.81 2604.09)" fill="#FFC735"/>
<rect x="2476.28" y="1477.22" width="728.473" height="728.635" rx="5" transform="rotate(-179.662 2476.28 1477.22)" fill="#FFC735"/>
<ellipse cx="2116.9" cy="1489.58" rx="107.18" ry="107.788" transform="rotate(-179.662 2116.9 1489.58)" fill="#FFC735"/>
<ellipse cx="2121.23" cy="743.224" rx="128.4" ry="129.128" transform="rotate(-179.662 2121.23 743.224)" fill="white"/>
<ellipse cx="2494.34" cy="1109.67" rx="113.853" ry="115.962" transform="rotate(-179.662 2494.34 1109.67)" fill="white"/>
<ellipse cx="1740.66" cy="1108.78" rx="113.853" ry="115.962" transform="rotate(-179.662 1740.66 1108.78)" fill="white"/>
<path fill-rule="evenodd" clip-rule="evenodd" d="M816.051 1441.54L1048.38 1354.54C1050.97 1353.57 1052.28 1350.69 1051.31 1348.1L964.413 1116.04C969.534 1114.91 974.636 1113.41 979.686 1111.52C1038.57 1089.47 1068.1 1022.97 1045.64 962.994C1023.19 903.017 957.243 872.271 898.357 894.321C893.307 896.212 888.473 898.43 883.87 900.942L799.305 675.105C798.337 672.519 795.455 671.207 792.869 672.175L581.199 751.435C604.075 817.417 570.531 889.845 505.132 914.333C439.733 938.822 366.868 906.239 340.781 841.46L120.02 924.123C117.434 925.092 116.122 927.973 117.091 930.559L202.646 1159.04C199.683 1159.88 196.732 1160.85 193.798 1161.95C134.911 1184 105.381 1250.49 127.839 1310.47C150.297 1370.45 216.24 1401.19 275.127 1379.14C278.06 1378.04 280.921 1376.83 283.707 1375.52L369.095 1603.56C370.064 1606.15 372.945 1607.46 375.531 1606.49L617.101 1516.03C605.218 1464.23 632.999 1410.45 683.858 1391.41C734.718 1372.37 790.988 1394.67 816.051 1441.54Z" fill="#FFC735"/>
<rect x="2469.38" y="3718.29" width="728.473" height="728.635" rx="5" transform="rotate(-179.662 2469.38 3718.29)" fill="#FFC735"/>
<ellipse cx="2115.79" cy="2970.74" rx="128.4" ry="129.128" transform="rotate(-179.662 2115.79 2970.74)" fill="white"/>
<ellipse cx="2485.3" cy="3353.1" rx="113.853" ry="115.962" transform="rotate(-179.662 2485.3 3353.1)" fill="white"/>
<ellipse cx="1731.63" cy="3352.22" rx="113.853" ry="115.962" transform="rotate(-179.662 1731.63 3352.22)" fill="#FFC735"/>
<rect x="1725.16" y="2215.78" width="728.473" height="728.635" rx="5" transform="rotate(-179.662 1725.16 2215.78)" fill="#FFC735"/>
<ellipse cx="1363.64" cy="2216.73" rx="128.4" ry="129.128" transform="rotate(-179.662 1363.64 2216.73)" fill="white"/>
<ellipse cx="1367.97" cy="1484.14" rx="128.4" ry="129.128" transform="rotate(-179.662 1367.97 1484.14)" fill="white"/>
<ellipse cx="1741.08" cy="1850.59" rx="113.853" ry="115.962" transform="rotate(-179.662 1741.08 1850.59)" fill="white"/>
<ellipse cx="987.409" cy="1849.7" rx="113.853" ry="115.962" transform="rotate(-179.662 987.409 1849.7)" fill="#FFC735"/>
<rect x="1725.84" y="2965.57" width="728.473" height="728.635" rx="5" transform="rotate(-179.662 1725.84 2965.57)" fill="#FFC735"/>
<ellipse cx="1364.32" cy="2966.53" rx="128.4" ry="129.128" transform="rotate(-179.662 1364.32 2966.53)" fill="white"/>
<ellipse cx="1366.44" cy="2217.19" rx="128.4" ry="129.128" transform="rotate(-179.662 1366.44 2217.19)" fill="white"/>
<ellipse cx="1741.76" cy="2600.39" rx="113.853" ry="115.962" transform="rotate(-179.662 1741.76 2600.39)" fill="white"/>
<ellipse cx="988.087" cy="2599.5" rx="113.853" ry="115.962" transform="rotate(-179.662 988.087 2599.5)" fill="#FFC735"/>
<rect x="1724.38" y="3713.7" width="728.473" height="728.635" rx="5" transform="rotate(-179.662 1724.38 3713.7)" fill="#FFC735"/>
<ellipse cx="1367.19" cy="2982.06" rx="128.4" ry="129.128" transform="rotate(-179.662 1367.19 2982.06)" fill="white"/>
<ellipse cx="1740.3" cy="3348.52" rx="113.853" ry="115.962" transform="rotate(-179.662 1740.3 3348.52)" fill="white"/>
<ellipse cx="986.626" cy="3347.63" rx="113.853" ry="115.962" transform="rotate(-179.662 986.626 3347.63)" fill="#FFC735"/>
<rect x="3229" y="733.677" width="728.473" height="728.635" rx="5" transform="rotate(-179.662 3229 733.677)" fill="#FFC735"/>
<ellipse cx="2869.3" cy="750.858" rx="128.4" ry="129.128" transform="rotate(-179.662 2869.3 750.858)" fill="white"/>
<ellipse cx="3235.61" cy="372.327" rx="113.853" ry="115.962" transform="rotate(-179.662 3235.61 372.327)" fill="white"/>
<ellipse cx="2488.79" cy="369.835" rx="113.853" ry="115.962" transform="rotate(-179.662 2488.79 369.835)" fill="#FFC735"/>
<rect x="2476.28" y="734.854" width="728.473" height="728.635" rx="5" transform="rotate(-179.662 2476.28 734.854)" fill="#FFC735"/>
<ellipse cx="2122.61" cy="745.046" rx="107.18" ry="107.788" transform="rotate(-179.662 2122.61 745.046)" fill="#FFC735"/>
<ellipse cx="2494.34" cy="367.312" rx="113.853" ry="115.962" transform="rotate(-179.662 2494.34 367.312)" fill="white"/>
<ellipse cx="1740.67" cy="366.423" rx="113.853" ry="115.962" transform="rotate(-179.662 1740.67 366.423)" fill="#FFC735"/>
<rect x="1725.7" y="733.68" width="728.473" height="728.635" rx="5" transform="rotate(-179.662 1725.7 733.68)" fill="#FFC735"/>
<ellipse cx="1364.18" cy="734.632" rx="128.4" ry="129.128" transform="rotate(-179.662 1364.18 734.632)" fill="white"/>
<ellipse cx="1737.96" cy="367.109" rx="113.853" ry="115.962" transform="rotate(-179.662 1737.96 367.109)" fill="white"/>
<ellipse cx="987.949" cy="367.601" rx="113.853" ry="115.962" transform="rotate(-179.662 987.949 367.601)" fill="#FFC735"/>
<rect x="3974.2" y="2998.77" width="728.473" height="722.135" rx="5" transform="rotate(90 3974.2 2998.77)" fill="#FFC735"/>
<ellipse cx="3249.42" cy="3363.01" rx="128.4" ry="129.128" transform="rotate(90 3249.42 3363.01)" fill="white"/>
<ellipse cx="3611.19" cy="2985.02" rx="111.026" ry="113.082" transform="rotate(-179.662 3611.19 2985.02)" fill="#FFC735"/>
<path d="M2724.9 1728.46C2746.74 1743.02 2787.5 1773.11 2775.85 1776.99C2764.21 1780.87 2737.03 1793.16 2724.9 1798.83" stroke="#232020" stroke-width="4"/>
<path d="M3014.5 1728.46C2992.66 1743.02 2951.9 1773.11 2963.55 1776.99C2975.19 1780.87 3002.37 1793.16 3014.5 1798.83" stroke="#232020" stroke-width="4"/>
<path d="M2959.57 1899.24C2947.92 1868.19 2845.53 1877.41 2799.43 1904.1C2791.34 1909.76 2768.86 1921.08 2763.04 1940.49C2755.76 1964.75 2877.07 2032.69 2896.48 2032.69C2915.89 2032.69 2974.12 1938.06 2959.57 1899.24Z" fill="#232020" stroke="#232020"/>
<mask id="mask0" mask-type="alpha" maskUnits="userSpaceOnUse" x="2761" y="1879" width="202" height="155">
<path d="M2959.25 1899.24C2947.6 1868.19 2845.21 1877.41 2799.11 1904.1C2791.03 1909.76 2768.54 1921.08 2762.72 1940.49C2755.44 1964.75 2876.76 2032.69 2896.17 2032.69C2915.58 2032.69 2973.81 1938.06 2959.25 1899.24Z" fill="#232020" stroke="white"/>
</mask>
<g mask="url(#mask0)">
<path d="M2868 1969.42C2889.1 1954.36 2929.54 1966.28 2947.12 1974.12L2923.38 2044.69H2846.9L2825.8 2002.35C2831.08 1997.64 2846.9 1984.47 2868 1969.42Z" fill="white"/>
</g>
</svg>
