<svg width="39" height="39" viewBox="0 0 39 39" fill="none" xmlns="http://www.w3.org/2000/svg">
<path d="M8.15096 38.3798C7.96026 38.3799 7.77647 38.3084 7.636 38.1794C7.49553 38.0504 7.40862 37.8734 7.39249 37.6834L6.92603 32.1716C4.87925 30.6234 3.19899 28.643 2.00488 26.3713C0.810775 24.0997 0.132194 21.5927 0.0174573 19.0289C-0.0972797 16.4651 0.354649 13.9075 1.34106 11.5382C2.32748 9.16901 3.82412 7.04639 5.72442 5.32152C9.46661 1.86486 14.3843 -0.0376194 19.4786 0.000573845C24.5731 -0.0379509 29.4913 1.86456 33.2336 5.32152C35.0361 6.95437 36.4766 8.94659 37.4625 11.1699C38.4483 13.3932 38.9577 15.7983 38.9577 18.2304C38.9577 20.6625 38.4483 23.0676 37.4625 25.291C36.4766 27.5143 35.0361 29.5065 33.2336 31.1393C29.4913 34.5966 24.5732 36.4994 19.4786 36.4612C17.629 36.4628 15.7874 36.2174 14.0027 35.7317L8.47235 38.3084C8.37167 38.3552 8.26198 38.3794 8.15096 38.3793V38.3798ZM19.4786 1.52218C9.57647 1.52218 1.51971 9.01778 1.51971 18.2304C1.53896 20.7511 2.14497 23.2327 3.28974 25.4785C4.43451 27.7243 6.08658 29.6727 8.11504 31.1692C8.19963 31.2336 8.26978 31.3151 8.32096 31.4083C8.37214 31.5015 8.40321 31.6043 8.41218 31.7103L8.81614 36.4682L13.6146 34.2325C13.7812 34.1548 13.9703 34.14 14.1469 34.1909C15.8801 34.6883 17.6745 34.9395 19.4776 34.9373C29.3792 34.9373 37.4365 27.4417 37.4365 18.229C37.4365 9.01638 29.3806 1.52031 19.4776 1.52031L19.4786 1.52218Z" fill="#F26522"/>
<path d="M21.7637 25.3924C21.4203 25.3927 21.0886 25.2676 20.8308 25.0407L16.2772 21.0552L8.17703 24.507C7.88979 24.6281 7.57085 24.652 7.2688 24.575C6.96674 24.498 6.69812 24.3244 6.50383 24.0807C6.30299 23.8246 6.19669 23.507 6.20289 23.1816C6.2091 22.8562 6.32742 22.5429 6.53788 22.2946L8.75125 19.3969C8.87372 19.2365 9.0549 19.1314 9.25492 19.1046C9.45494 19.0777 9.65742 19.1315 9.81782 19.254C9.97821 19.3765 10.0834 19.5576 10.1102 19.7576C10.137 19.9577 10.0833 20.1601 9.96078 20.3205L7.95499 22.9481L16.1214 19.466C16.2531 19.4098 16.398 19.3919 16.5395 19.4145C16.6809 19.437 16.8131 19.499 16.9209 19.5933L21.7525 23.8223L30.9624 13.2443L22.1695 16.7367C22.0394 16.7883 21.8976 16.803 21.7597 16.7793C21.6217 16.7555 21.493 16.6941 21.3877 16.6019L16.5477 12.3655L9.96219 20.3224C9.68511 20.6382 8.58425 21.3323 8.26846 21.0552C7.95266 20.7781 8.47603 19.7146 8.75265 19.3983L15.4772 11.2814C15.7253 11.002 16.0737 10.8317 16.4466 10.8076C16.8195 10.7835 17.1869 10.9075 17.469 11.1527L22.0403 15.1535L30.8033 11.6732C31.101 11.5524 31.4309 11.5365 31.7388 11.6281C32.0467 11.7197 32.3142 11.9134 32.4974 12.1774C32.6805 12.4413 32.7683 12.7597 32.7464 13.0802C32.7245 13.4007 32.5941 13.7042 32.3767 13.9407L22.8142 24.9255C22.8077 24.9334 22.8007 24.9409 22.7937 24.9483C22.662 25.0886 22.5031 25.2004 22.3266 25.277C22.1501 25.3535 21.9598 25.3931 21.7674 25.3933L21.7637 25.3924ZM7.57763 23.1105H7.57482H7.57763Z" fill="#F26522"/>
</svg>
