<svg width="733" height="659" viewBox="0 0 733 659" fill="none" xmlns="http://www.w3.org/2000/svg">
<path fill-rule="evenodd" clip-rule="evenodd" d="M330.376 558.775L465.55 622.847C468.045 624.03 471.027 622.966 472.209 620.471L536.208 485.452C538.88 487.218 541.709 488.817 544.685 490.228C579.392 506.679 621.111 491.358 637.866 456.009C654.622 420.659 640.069 378.666 605.362 362.215C602.386 360.804 599.358 359.627 596.299 358.676L658.557 227.329C659.74 224.833 658.676 221.852 656.181 220.669L533.183 162.368C513.971 200.454 467.945 216.536 429.4 198.265C390.855 179.995 374.165 134.186 391.483 95.2033L263.128 34.3634C260.633 33.1807 257.651 34.2447 256.468 36.74L193.472 169.645C191.844 168.702 190.165 167.819 188.435 166.999C153.728 150.548 112.01 165.869 95.2541 201.219C78.4985 236.568 93.051 278.561 127.758 295.012C129.487 295.832 131.234 296.572 132.994 297.236L70.1202 429.882C68.9375 432.377 70.0015 435.359 72.4968 436.542L213.117 503.195C230.783 475.96 266.18 465.279 296.156 479.487C326.133 493.696 340.274 527.858 330.376 558.775Z" fill="#FFC93D"/>
</svg>
