<svg width="83" height="118" viewBox="0 0 83 118" fill="none" xmlns="http://www.w3.org/2000/svg">
<path fill-rule="evenodd" clip-rule="evenodd" d="M57.6404 101.803L69.3091 97.0567C71.8669 96.0162 73.097 93.0991 72.0565 90.5412L67.3172 78.8907C67.671 78.8022 68.0226 78.6878 68.3699 78.5466C72.4198 76.8991 74.3426 72.2198 72.6646 68.0949C70.9867 63.9701 66.3434 61.9618 62.2936 63.6092C61.9463 63.7505 61.6146 63.9141 61.2995 64.0977L56.7344 52.8754C55.6939 50.3175 52.7768 49.0875 50.2189 50.128L39.971 54.2967C41.6897 58.8381 39.4995 63.9375 35.0018 65.7671C30.5041 67.5967 25.3762 65.4743 23.4366 61.0228L12.5634 65.4459C10.0056 66.4864 8.7755 69.4035 9.81602 71.9614L14.4551 83.3653C14.2508 83.4295 14.0475 83.5025 13.8458 83.5846C9.79593 85.232 7.87313 89.9113 9.55108 94.0362C11.229 98.161 15.8723 100.169 19.9221 98.5219C20.1239 98.4398 20.3204 98.3502 20.5114 98.2535L25.1381 109.627C26.1787 112.185 29.0957 113.415 31.6536 112.375L43.9579 107.369C43.031 103.792 44.8569 100 48.3547 98.5773C51.8525 97.1544 55.807 98.595 57.6404 101.803Z" fill="#F26522"/>
<path fill-rule="evenodd" clip-rule="evenodd" d="M52.9347 40.0708L59.7706 37.2901C62.3285 36.2495 63.5585 33.3325 62.518 30.7746L59.7424 23.9515C59.9913 23.8892 60.2387 23.8088 60.483 23.7094C63.3321 22.5504 64.6848 19.2584 63.5043 16.3566C62.3239 13.4547 59.0573 12.0418 56.2082 13.2008C55.9639 13.3002 55.7306 13.4153 55.5089 13.5444L52.8559 7.02266C51.8154 4.46478 48.8983 3.23472 46.3405 4.27524L40.5041 6.64942C41.7133 9.84435 40.1724 13.4319 37.0082 14.719C33.844 16.0062 30.2364 14.513 28.8719 11.3813L22.5958 13.9343C20.038 14.9749 18.8079 17.8919 19.8484 20.4498L22.5534 27.0994C22.4097 27.1445 22.2667 27.1959 22.1247 27.2537C19.2756 28.4126 17.9229 31.7046 19.1034 34.6065C20.2838 37.5083 23.5504 38.9212 26.3995 37.7622C26.5415 37.7045 26.6797 37.6414 26.8141 37.5734L29.5105 44.2017C30.551 46.7596 33.4681 47.9897 36.026 46.9492L43.3089 43.9865C42.6569 41.4699 43.9415 38.8023 46.4022 37.8013C48.8629 36.8003 51.6449 37.8137 52.9347 40.0708Z" fill="#FFF1CA"/>
</svg>
