<svg width="1134" height="659" viewBox="0 0 1134 659" fill="none" xmlns="http://www.w3.org/2000/svg">
<path fill-rule="evenodd" clip-rule="evenodd" d="M1108.64 334.803L1120.31 330.057C1122.87 329.016 1124.1 326.099 1123.06 323.541L1118.32 311.891C1118.67 311.802 1119.02 311.688 1119.37 311.547C1123.42 309.899 1125.34 305.22 1123.66 301.095C1121.99 296.97 1117.34 294.962 1113.29 296.609C1112.95 296.751 1112.61 296.914 1112.3 297.098L1107.73 285.875C1106.69 283.318 1103.78 282.087 1101.22 283.128L1090.97 287.297C1092.69 291.838 1090.5 296.937 1086 298.767C1081.5 300.597 1076.38 298.474 1074.44 294.023L1063.56 298.446C1061.01 299.486 1059.78 302.403 1060.82 304.961L1065.46 316.365C1065.25 316.429 1065.05 316.502 1064.85 316.585C1060.8 318.232 1058.87 322.911 1060.55 327.036C1062.23 331.161 1066.87 333.169 1070.92 331.522C1071.12 331.44 1071.32 331.35 1071.51 331.254L1076.14 342.627C1077.18 345.185 1080.1 346.415 1082.65 345.375L1094.96 340.369C1094.03 336.792 1095.86 333 1099.35 331.577C1102.85 330.154 1106.81 331.595 1108.64 334.803Z" fill="#F26522"/>
<path fill-rule="evenodd" clip-rule="evenodd" d="M1103.93 273.071L1110.77 270.29C1113.33 269.25 1114.56 266.332 1113.52 263.775L1110.74 256.951C1110.99 256.889 1111.24 256.809 1111.48 256.709C1114.33 255.55 1115.68 252.258 1114.5 249.357C1113.32 246.455 1110.06 245.042 1107.21 246.201C1106.96 246.3 1106.73 246.415 1106.51 246.544L1103.86 240.023C1102.82 237.465 1099.9 236.235 1097.34 237.275L1091.5 239.649C1092.71 242.844 1091.17 246.432 1088.01 247.719C1084.84 249.006 1081.24 247.513 1079.87 244.381L1073.6 246.934C1071.04 247.975 1069.81 250.892 1070.85 253.45L1073.55 260.099C1073.41 260.145 1073.27 260.196 1073.12 260.254C1070.28 261.413 1068.92 264.705 1070.1 267.606C1071.28 270.508 1074.55 271.921 1077.4 270.762C1077.54 270.704 1077.68 270.641 1077.81 270.573L1080.51 277.202C1081.55 279.76 1084.47 280.99 1087.03 279.949L1094.31 276.987C1093.66 274.47 1094.94 271.802 1097.4 270.801C1099.86 269.8 1102.64 270.814 1103.93 273.071Z" fill="#FFF1CA"/>
<path fill-rule="evenodd" clip-rule="evenodd" d="M330.376 558.775L465.55 622.847C468.045 624.03 471.027 622.966 472.209 620.471L536.208 485.452C538.88 487.218 541.709 488.817 544.685 490.228C579.392 506.679 621.111 491.358 637.866 456.009C654.622 420.659 640.069 378.666 605.362 362.215C602.386 360.804 599.358 359.627 596.299 358.676L658.557 227.329C659.74 224.833 658.676 221.852 656.181 220.669L533.183 162.368C513.971 200.454 467.945 216.536 429.4 198.265C390.855 179.995 374.165 134.186 391.483 95.2033L263.128 34.3634C260.633 33.1807 257.651 34.2447 256.468 36.74L193.472 169.645C191.844 168.702 190.165 167.819 188.435 166.999C153.728 150.548 112.01 165.869 95.2541 201.219C78.4985 236.568 93.051 278.561 127.758 295.012C129.487 295.832 131.234 296.572 132.994 297.236L70.1202 429.882C68.9375 432.377 70.0015 435.359 72.4968 436.542L213.117 503.195C230.783 475.96 266.18 465.279 296.156 479.487C326.133 493.696 340.274 527.858 330.376 558.775Z" fill="#FFC93D"/>
</svg>
