<svg width="58" height="55" viewBox="0 0 58 55" fill="none" xmlns="http://www.w3.org/2000/svg">
<path fill-rule="evenodd" clip-rule="evenodd" d="M40.2213 44.5435L47.0491 41.9868C49.6352 41.0185 50.9466 38.137 49.9782 35.5509L47.4264 28.736C47.6751 28.6812 47.9229 28.6082 48.1681 28.5164C51.0279 27.4455 52.462 24.2162 51.3714 21.3035C50.2807 18.3907 47.0782 16.8976 44.2184 17.9684C43.9732 18.0603 43.7384 18.1679 43.5149 18.29L41.0762 11.7773C40.1079 9.19124 37.2264 7.87982 34.6404 8.84817L28.8158 11.0292C29.9267 14.2335 28.2977 17.7509 25.1216 18.9401C21.9456 20.1294 18.407 18.5471 17.14 15.4012L10.8741 17.7475C8.288 18.7158 6.97658 21.5972 7.94494 24.1833L10.4316 30.8242C10.2877 30.8649 10.1444 30.9119 10.0019 30.9653C7.14211 32.0361 5.70797 35.2655 6.79864 38.1782C7.88931 41.0909 11.0918 42.5841 13.9516 41.5132C14.0941 41.4599 14.233 41.4012 14.3683 41.3374L16.847 47.9569C17.8153 50.543 20.6967 51.8544 23.2828 50.8861L30.5594 48.1614C29.9824 45.6457 31.3315 43.0341 33.8014 42.1092C36.2714 41.1843 39.0041 42.2675 40.2213 44.5435Z" fill="#F26522"/>
<path fill-rule="evenodd" clip-rule="evenodd" d="M40.2212 40.1665L47.0491 37.6098C49.6352 36.6415 50.9466 33.7601 49.9783 31.174L47.4264 24.359C47.6751 24.3042 47.9229 24.2312 48.1681 24.1394C51.0279 23.0686 52.462 19.8392 51.3713 16.9265C50.2807 14.0137 47.0782 12.5206 44.2184 13.5914C43.9732 13.6833 43.7384 13.791 43.5149 13.913L41.0762 7.40036C40.1079 4.81429 37.2264 3.50287 34.6404 4.47122L28.8158 6.65223C29.9267 9.8566 28.2977 13.374 25.1216 14.5632C21.9456 15.7525 18.407 14.1702 17.14 11.0242L10.8741 13.3705C8.288 14.3389 6.97658 17.2203 7.94494 19.8064L10.4316 26.4472C10.2877 26.488 10.1444 26.5349 10.0019 26.5883C7.1421 27.6591 5.70796 30.8885 6.79863 33.8012C7.8893 36.714 11.0918 38.2071 13.9516 37.1363C14.0941 37.0829 14.233 37.0242 14.3683 36.9604L16.847 43.58C17.8153 46.1661 20.6967 47.4775 23.2828 46.5091L30.5594 43.7844C29.9824 41.2688 31.3315 38.6571 33.8014 37.7323C36.2714 36.8074 39.004 37.8906 40.2212 40.1665Z" fill="#FFC93D"/>
</svg>
