<svg width="128" height="98" viewBox="0 0 128 98" fill="none" xmlns="http://www.w3.org/2000/svg">
<path fill-rule="evenodd" clip-rule="evenodd" d="M77.8529 97.8193L105.771 97.8193C108.533 97.8193 110.771 95.5808 110.771 92.8193L110.771 63.8808C111.447 63.9799 112.137 64.0312 112.838 64.0312C121.017 64.0312 127.647 57.0612 127.647 48.4633C127.647 39.8654 121.017 32.8954 112.838 32.8954C112.137 32.8954 111.447 32.9467 110.771 33.0458L110.771 4.99992C110.771 2.2385 108.533 -7.80187e-05 105.771 -7.82678e-05L80.7221 -8.05281e-05C80.4991 9.37243 73.1095 16.8991 64.0264 16.8991C54.9432 16.8991 47.5537 9.37243 47.3307 -8.35411e-05L21.0192 -8.59153e-05C18.2578 -8.61644e-05 16.0192 2.23849 16.0192 4.99991L16.0192 33.4245C15.62 33.3906 15.2163 33.3733 14.8088 33.3733C6.63015 33.3733 1.24976e-05 40.3432 1.17694e-05 48.9411C1.10411e-05 57.539 6.63015 64.509 14.8088 64.509C15.2163 64.509 15.62 64.4917 16.0192 64.4577L16.0192 92.8193C16.0192 95.5808 18.2578 97.8193 21.0192 97.8193L50.2209 97.8193C51.1363 90.7473 56.973 85.2939 64.0369 85.2939C71.1007 85.2939 76.9375 90.7473 77.8529 97.8193Z" fill="#F26522"/>
<path d="M77.2232 58.1706C75.7516 54.1202 62.8137 55.3227 56.9886 58.8035C55.9667 59.5419 53.1256 61.0186 52.3898 63.5501C51.4701 66.7145 66.7993 75.5748 69.252 75.5748C71.7046 75.5748 79.0627 63.2337 77.2232 58.1706Z" fill="#232020" stroke="#232020"/>
<mask id="mask0" mask-type="alpha" maskUnits="userSpaceOnUse" x="51" y="55" width="27" height="22">
<path d="M77.1833 58.1706C75.7116 54.1202 62.7738 55.3227 56.9487 58.8035C55.9267 59.5419 53.0857 61.0186 52.3499 63.5501C51.4302 66.7145 66.7594 75.5748 69.2121 75.5748C71.6647 75.5748 79.0228 63.2337 77.1833 58.1706Z" fill="#232020" stroke="#232020"/>
</mask>
<g mask="url(#mask0)">
<path d="M65.6531 67.3227C68.319 65.3594 73.4288 66.9137 75.6504 67.9363L72.6512 77.1393H62.9871L60.3212 71.6175C60.9877 71.004 62.9871 69.2861 65.6531 67.3227Z" fill="#FFC735"/>
</g>
<ellipse cx="48.6311" cy="35.3696" rx="9.19753" ry="9.49317" fill="white"/>
<ellipse cx="79.2896" cy="35.3696" rx="9.19753" ry="9.49317" fill="white"/>
<ellipse cx="52.3101" cy="37.2681" rx="4.90535" ry="5.06302" fill="black"/>
<ellipse cx="75.6105" cy="37.2681" rx="4.90535" ry="5.06302" fill="black"/>
</svg>
